<?xml version="1.0" encoding="UTF-8"?>
<!DOCTYPE svg PUBLIC "-//W3C//DTD SVG 1.1//EN" "http://www.w3.org/Graphics/SVG/1.1/DTD/svg11.dtd">
<!-- Creator: CorelDRAW X7 -->
<svg xmlns="http://www.w3.org/2000/svg" xml:space="preserve" width="11in" height="11in" version="1.1" shape-rendering="geometricPrecision" text-rendering="geometricPrecision" image-rendering="optimizeQuality" fill-rule="evenodd" clip-rule="evenodd"
viewBox="0 0 11000 11000"
 xmlns:xlink="http://www.w3.org/1999/xlink">
 <g id="Layer_x0020_1">
  <metadata id="CorelCorpID_0Corel-Layer"/>
  <g id="_2223557354832">
   <path fill="#FF0054" d="M5500 2466c-808,0 -1574,318 -2146,888 -571,571 -888,1338 -888,2146 0,808 318,1575 888,2146 572,571 1338,888 2146,888 808,0 1575,-317 2146,-888 570,-571 888,-1338 888,-2146 0,-808 -318,-1575 -888,-2146 -571,-570 -1338,-888 -2146,-888zm855 3490c-156,-41 -311,-89 -463,-143 112,-131 217,-270 314,-417 98,-147 181,-297 249,-451 68,-154 116,-312 146,-474 29,-162 33,-326 12,-491 -18,-149 -72,-286 -161,-412 -89,-125 -199,-221 -329,-287 -170,-85 -348,-130 -534,-135 -186,-5 -370,18 -553,68 -184,51 -360,121 -530,212 -170,91 -322,187 -455,288 -249,192 -270,402 -198,664l129 472 743 2718c28,91 85,167 169,227 84,60 176,75 277,44 45,-14 88,-36 128,-64 40,-29 73,-63 99,-102 25,-39 43,-83 53,-130 9,-48 8,-96 -4,-146l-124 -457 -121 -467 117 -101c231,91 473,173 725,246 252,73 505,129 759,170 51,9 99,4 145,-16 46,-20 86,-47 121,-84 35,-36 63,-76 84,-121 20,-45 31,-90 30,-136 -2,-111 -36,-197 -103,-260 -67,-62 -152,-102 -253,-120 -159,-22 -316,-53 -472,-95zm-574 -889c-121,-53 -253,-128 -359,-150 -34,-7 -66,5 -87,33 -53,73 -109,152 -169,232 -150,201 -261,393 -300,-5 -11,-110 -12,-235 -14,-333 0,-42 -30,-77 -72,-84 -72,-11 -164,-26 -243,-47 -326,-88 -110,-190 60,-279 359,-190 275,-75 333,-461 6,-40 11,-76 18,-114 32,-194 113,-194 227,-71 80,85 165,190 216,256 24,32 62,46 101,37 180,-41 414,-136 548,-39 62,98 -137,330 -237,431 -24,24 -31,57 -20,89 36,101 112,221 168,334 119,243 77,281 -170,171z"/>
   <path fill="#FDC91D" d="M5500 2256c896,0 1707,364 2293,951 587,586 951,1397 951,2293 0,896 -364,1707 -951,2293 -586,587 -1397,951 -2293,951 -896,0 -1707,-364 -2293,-951 -587,-586 -951,-1397 -951,-2293 0,-896 364,-1707 951,-2293 586,-587 1397,-951 2293,-951zm2634 610c-674,-674 -1606,-1091 -2634,-1091 -1028,0 -1960,417 -2634,1091 -674,674 -1091,1606 -1091,2634 0,1028 417,1960 1091,2634 674,674 1606,1091 2634,1091 1028,0 1960,-417 2634,-1091 674,-674 1091,-1606 1091,-2634 0,-1028 -417,-1960 -1091,-2634z"/>
  </g>
 </g>
</svg>
